<?xml version="1.0" encoding="utf-8"?>
<svg xmlns="http://www.w3.org/2000/svg" viewBox="103.016 52.561 247.892 247.969" xmlns:bx="https://boxy-svg.com" width="247.892px" height="247.969px"><defs><bx:export><bx:file format="png" excluded="true"/><bx:file format="svg"/></bx:export></defs><rect x="102.58" y="51.517" width="248.765" height="250.057" style="stroke: rgb(0, 0, 0);"/><path opacity="1.000000" stroke="none" d="M 272.711 133.242 C 272.347 140.184 273.9 146.137 275.491 152.132 C 276.981 157.749 274.822 163.88 270.893 165.818 C 268.214 167.14 266.941 166.008 266.504 161.973 C 265.874 156.163 263.553 151.846 260.506 148.155 C 258.949 146.268 258.126 147.107 257.597 149.541 C 256.384 155.118 256.72 160.557 258.566 165.69 C 260.465 170.968 261.544 176.482 261.655 182.402 C 261.668 183.087 261.606 184.002 261.875 184.416 C 265.836 190.488 266.418 200.242 272.47 204.065 C 274.646 205.438 275.868 208.034 276.213 211.488 C 276.6 215.37 278.223 218.34 279.994 221.148 C 282.453 225.043 284.976 228.711 285.925 234.196 C 286.486 237.441 288.823 239.659 289.714 242.985 C 290.866 247.291 289.92 249.228 286.644 248.905 C 283.031 248.549 280.158 243.792 280.681 238.659 C 280.881 236.692 280.702 235.282 279.815 233.731 C 277.892 230.366 276.856 226.255 275.601 222.362 C 273.384 215.486 269.875 210.613 265.107 207.422 C 263.191 206.14 261.356 204.609 259.254 203.016 C 257.133 208.412 258.13 213.813 258.875 218.935 C 259.443 222.841 259.092 225.211 256.433 226.965 C 254.443 228.278 253.646 231.506 252.2 233.736 C 251.174 235.319 250.036 236.998 248.461 235.663 C 246.339 233.865 245.98 230.48 245.637 227.373 C 245.366 224.915 246.936 224.74 248.143 224.219 C 252.921 222.157 255.493 214.226 253.3 208.353 C 252.044 204.988 250.213 203.085 247.391 203.699 C 244.811 204.259 242.139 203.572 239.608 204.926 C 238.599 205.465 237.679 204.99 236.982 203.83 C 235.022 200.57 232.573 200.405 229.803 201.055 C 225.726 202.011 221.688 201.42 217.727 199.612 C 216.669 199.129 215.45 197.068 214.393 199.325 C 213.484 201.265 213.413 203.603 214.32 205.637 C 215.469 208.213 216.723 210.847 218.616 212.33 C 220.611 213.892 221.838 216.125 222.839 218.922 C 225.302 225.802 229.464 230.354 233.721 234.781 C 237.078 238.272 240.25 242.103 243.814 245.215 C 245.874 247.014 245.244 249.031 243.433 250.595 C 240.518 253.111 238.96 252.615 237.143 248.575 C 237.038 248.341 236.98 248.033 236.837 247.87 C 231.873 242.203 228.784 233.716 222.959 229.294 C 220.309 227.282 217.879 224.684 215.34 222.372 C 214.295 221.42 213.796 220.029 213.402 218.383 C 212.839 216.033 212.084 213.765 210.313 212.714 C 207.827 216.56 207.774 224.298 210.582 230.022 C 212.884 234.715 214.722 240.113 218.719 242.732 C 220.303 243.77 219.751 245.342 218.676 246.619 C 216.312 249.425 212.378 248.391 210.976 244.105 C 207.841 234.522 203.999 225.537 200.138 216.552 C 199.295 214.589 199.363 212.679 200.107 210.644 C 200.823 208.686 201.368 206.602 201.995 204.577 C 202.502 202.937 202.167 201.724 201.229 200.562 C 197.621 196.09 194.6 190.777 190.267 187.325 C 187.508 185.126 186.069 180.553 184.708 176.341 C 184.176 174.692 183.901 172.128 182.096 172.573 C 180.198 173.04 179.139 175.157 178.8 177.811 C 178.218 182.364 179.507 186.226 181.165 189.921 C 182.952 193.905 183.425 198.156 182.212 202.612 C 180.868 207.546 179.717 207.782 177.366 203.934 C 176.221 202.059 174.925 200.367 173.655 198.655 C 172.163 196.646 170.583 194.813 170.872 191.349 C 171.014 189.65 169.824 188.805 169.194 187.618 C 168.39 186.103 167.282 184.869 167.818 182.508 C 168.191 180.865 167.018 180.173 166.383 179.192 C 165.289 177.503 163.783 176.195 163.74 173.154 C 168.362 171.852 171.164 167.077 173.691 161.928 C 176.828 155.536 181.149 152.312 186.512 152.057 C 188.8 151.948 190.67 150.868 192.328 148.821 C 199.71 139.706 207.818 138.924 216.507 144.41 C 218.103 145.418 219.741 146.297 221.371 147.193 C 222.779 147.966 224.193 148.149 225.448 147.172 C 226.538 142.77 227.318 138.567 223.856 136.111 C 224.267 134.478 224.88 134.514 225.458 134.425 C 229.457 133.812 229.698 133.386 228.872 127.942 C 228.579 126.007 228.717 124.661 230.366 124.404 C 231.022 124.303 231.731 124.046 232.28 123.553 C 233.638 122.329 234.85 120.769 234.376 118.162 C 233.792 114.942 231.818 115.966 230.283 115.817 C 230.361 110.086 232.732 108.324 239.502 108.898 C 240.163 107.38 238.389 106.697 238.999 104.888 C 240.075 103.929 241.339 104.672 242.657 104.945 C 244.676 105.362 243.947 101.953 245.111 100.961 C 246.775 100.844 247.65 102.631 248.65 104.087 C 249.946 105.973 251.214 107.881 253.035 108.785 C 253.797 109.164 254.41 109.464 255.151 108.502 C 257.948 104.869 261.568 104.204 264.797 106.354 C 266.2 107.288 267.001 109.777 268.719 109.668 C 270.323 109.564 270.448 106.449 272.022 105.853 C 273.227 107.819 272.414 109.802 272.144 111.742 C 271.47 116.595 269.535 121.395 272.935 126.052 C 274.107 127.659 273.025 130.571 272.711 133.242 Z" style="stroke-width: 0.708; fill: rgb(217, 119, 6);"/><g transform="matrix(1, 0, 0, 1, -23.682907, -73.300453)"><g><g><g><g><path opacity="1.000000" stroke="none" d="M 240.78 177.801 C 240.936 178.105 241.058 178.424 241.194 178.737 C 259.864 221.626 278.535 264.513 297.22 307.473 C 297.274 307.616 297.316 307.682 297.359 307.75 C 297.38 307.799 297.402 307.847 297.423 307.941 C 297.465 308.054 297.506 308.12 297.549 308.188 C 297.556 308.346 297.614 308.619 297.563 308.643 C 296.966 308.921 303.332 306.054 295.712 309.419 C 279.846 272.976 263.998 236.575 248.133 200.139 C 245.02 192.992 241.907 185.843 238.793 178.692 C 239.425 178.355 240.087 178.084 240.78 177.801 Z" style="stroke-width: 0.104; fill: rgb(217, 119, 6); transform-origin: 269.144px 243.237px;" transform="matrix(0.999736, -0.022971, 0.022971, 0.999736, 0, 0)"/><g transform="matrix(0.999939, -0.011013, 0.011013, 0.999939, 105.200798, 139.486206)"><g><g><g transform="matrix(1, 0, 0, 1, -95.1483, -153.031174)"><g id="Layer_1" transform="matrix(-0.225256, -0.00663, -0.010132, 0.344244, 561.86615, 235.400299)" style="transform-origin: -335.501px -7.20248px;"><g id="flag-on-pole-pattern-7" transform="matrix(1, 0, 0, 1, 125.729416, 110.891975)"><g><path d="M -432.55 -252.46 C -430.43 -255.37 -432.02 -258.09 -436.11 -258.52 C -440.19 -258.95 -445.22 -256.94 -447.34 -254.03 C -448.67 -252.19 -448.53 -250.44 -447.24 -249.29 L -643.86 21.517 L -635.63 22.389 L -497.57 -167.77 C -478.11 -166.8 -459.18 -164.96 -440.97 -162.23 C -432.56 -160.97 -455.4 -137.49 -454.62 -133.45 C -453.71 -128.7 -429.67 -127.02 -421.84 -127.18 C -393.68 -127.76 -340.25 -132.39 -329.77 -125.97 L -278.6 -196.45 C -289.08 -202.88 -305.09 -205.15 -321.69 -205.33 C -338.28 -205.53 -355.76 -203.8 -372.83 -202.95 C -377.68 -202.71 -383.03 -202.8 -386.67 -203.98 L -368.27 -229.33 L -368.3 -229.31 C -367.57 -230.25 -367 -231.22 -366.73 -232.2 C -364.98 -238.39 -374.41 -241.06 -382.82 -242.32 C -401.04 -245.04 -419.96 -246.89 -439.42 -247.86 L -439.02 -248.41 C -436.35 -249.15 -433.88 -250.63 -432.55 -252.46 Z" style="fill: rgb(217, 119, 6); transform-origin: -447.58px -108.698px;"/></g></g><g id="Layer_1_1_" transform="matrix(1, 0, 0, 1, 125.729416, 110.891975)"/></g></g></g></g></g></g></g></g></g></g></svg>